<svg width="196" height="26" viewBox="0 0 196 26" fill="none" xmlns="http://www.w3.org/2000/svg">
<path fill-rule="evenodd" clip-rule="evenodd" d="M5.06523 5.12415H9.25764V10.2212H5.05542V12.3714C5.05542 14.1317 5.19272 14.7422 5.48447 15.311C5.68061 15.6812 5.92578 15.9337 6.30089 16.1323C6.85007 16.4314 7.47525 16.5638 9.22822 16.5638H9.2699V21.6658H9.22822C6.5289 21.6658 5.16329 21.3054 3.91783 20.6361C2.67236 19.9643 1.69413 18.9837 1.02727 17.7308C0.357949 16.478 0 15.1051 0 12.3935V0.561523H5.06523V5.12415ZM16.8383 12.3933V4.78809H11.7461V12.3933C11.7461 15.1049 12.1041 16.4778 12.7709 17.7282C13.1166 18.3558 13.5163 18.9075 14.0041 19.3978C15.507 20.9081 17.4733 21.6681 19.4518 21.6681C21.4304 21.6681 23.3966 20.9056 24.8995 19.3978C25.3948 18.9197 25.792 18.3509 26.1327 17.7282C26.7996 16.4778 27.1576 15.1049 27.1576 12.3933V4.78809H22.085V12.3933C22.085 14.1536 21.955 14.7812 21.6559 15.3329C21.5726 15.529 21.4524 15.6737 21.3151 15.811C20.8076 16.3209 20.1579 16.5832 19.4616 16.5832C18.7654 16.5832 18.1083 16.3136 17.6082 15.811C17.4758 15.6737 17.3679 15.5315 17.2674 15.3329C16.9756 14.7641 16.8383 14.1536 16.8383 12.3933ZM44.6603 7.85517L40.6125 10.9272C39.9751 10.0764 38.9674 9.52478 37.8053 9.52478C35.8807 9.52478 34.3018 11.1061 34.3018 13.0454C34.3018 14.9847 35.8758 16.5661 37.8053 16.5661C38.9503 16.5661 39.9579 16.0144 40.6125 15.1637L44.6652 18.2357C43.0912 20.3245 40.6125 21.6607 37.8102 21.6607C33.0711 21.6607 29.2268 17.7993 29.2268 13.0381C29.2268 8.27686 33.0711 4.42033 37.8029 4.42033C40.5929 4.40316 43.0888 5.76141 44.6578 7.84536V7.85027L44.6603 7.85517ZM45.1678 13.0456C45.1678 8.28434 49.0121 4.41064 53.7439 4.41064C58.4757 4.41064 62.3199 8.26718 62.3199 13.0284C62.3199 17.7896 58.4757 21.6633 53.7439 21.6633C49.0121 21.6633 45.1678 17.8068 45.1678 13.0456ZM50.2404 13.0407C50.2404 14.98 51.8021 16.5613 53.7439 16.5613C55.6734 16.5613 57.2473 14.98 57.2473 13.0407C57.2473 11.1014 55.6734 9.52 53.7439 9.52C51.8144 9.52 50.2404 11.1014 50.2404 13.0407ZM99.1716 10.8954C100.966 11.4764 101.9 11.8957 102.7 12.6091C103.825 13.5923 104.482 14.9333 104.482 16.37C104.482 19.3096 101.765 21.6633 98.4434 21.6633C96.7983 21.6633 95.1189 21.0822 94.0205 20.131C93.2629 19.4714 92.775 18.9811 92.3583 18.4295L92.1964 18.2211L95.6411 15.61C96.0824 16.0881 96.5164 16.4411 96.9282 16.6814C97.4774 16.9928 97.9359 17.1423 98.4409 17.1423C99.2696 17.1423 99.9536 16.8849 99.9536 16.424C99.9536 16.2867 99.8948 16.1837 99.733 16.0538C99.5246 15.8748 99.125 15.6836 98.3502 15.3943C98.2914 15.3771 97.8133 15.2153 97.7299 15.1859C95.9353 14.6048 95.0012 14.1856 94.2019 13.4721C93.0766 12.489 92.4195 11.1479 92.4195 9.7112C92.4195 6.77161 95.136 4.41797 98.4581 4.41797C100.103 4.41797 101.785 4.99902 102.881 5.95029C103.639 6.60979 104.126 7.10014 104.543 7.65177L104.705 7.86017L101.26 10.4712C100.802 9.99315 100.373 9.6401 99.9733 9.39984C99.4241 9.08847 98.9656 8.93892 98.4606 8.93892C97.6319 8.93892 96.9479 9.17918 96.9479 9.65727C96.9479 9.79456 97.0067 9.87792 97.1562 10.0275C97.3646 10.2064 97.7643 10.3977 98.539 10.687C98.5832 10.7017 98.7207 10.7465 98.8581 10.7913C98.9953 10.836 99.1324 10.8807 99.1765 10.8954H99.1716ZM85.0473 12.3884V4.7832H90.1591V12.3884C90.1591 15.1 89.8011 16.4729 89.1343 17.7233C88.7886 18.346 88.3889 18.9148 87.9011 19.3929C86.3982 20.9032 84.427 21.6632 82.4534 21.6632C80.5999 21.6632 78.7464 20.9914 77.2852 19.6626C75.824 20.9914 73.9705 21.6632 72.117 21.6632C70.1384 21.6632 68.1722 20.9032 66.6693 19.3929C66.1765 18.9026 65.7769 18.351 65.4361 17.7233C64.7692 16.4729 64.4113 15.1 64.4113 12.3884V4.7832H69.4838V12.3884C69.4838 14.1487 69.6138 14.7592 69.9129 15.328C70.0159 15.5241 70.1164 15.6688 70.2537 15.8061C70.7538 16.3087 71.4109 16.5784 72.1072 16.5784C72.8034 16.5784 73.4532 16.316 73.9607 15.8061C74.0906 15.6688 74.2107 15.5266 74.299 15.328C74.5907 14.7715 74.728 14.1487 74.728 12.3884V4.7832H79.8006V12.3884C79.8006 14.1487 79.933 14.7592 80.2297 15.328C80.3326 15.5241 80.4332 15.6688 80.5705 15.8061C81.0706 16.3087 81.7277 16.5784 82.4239 16.5784C83.1202 16.5784 83.7699 16.316 84.2774 15.8061C84.4098 15.6688 84.53 15.5266 84.6182 15.328C84.91 14.7715 85.0473 14.1487 85.0473 12.3884Z" fill="#021647"/>
<path fill-rule="evenodd" clip-rule="evenodd" d="M106.51 21.83L114.578 0H119.729L111.798 21.83H106.51ZM124.61 12.8642C124.615 14.7691 126.17 16.3063 128.104 16.3063C130.026 16.299 131.586 14.752 131.586 12.8519C131.581 10.9494 130.014 9.40479 128.092 9.41215C126.17 9.41705 124.61 10.9641 124.61 12.8642ZM128.08 4.41312C132.767 4.40086 136.585 8.13236 136.634 12.7612V21.3029H131.586V20.5625C130.524 21.0332 129.352 21.3005 128.114 21.3029C123.404 21.3152 119.572 17.5445 119.56 12.8838C119.548 8.22307 123.37 4.42537 128.08 4.41312ZM145.913 10.9174C147.742 11.5009 148.698 11.9202 149.512 12.6361C150.66 13.6217 151.329 14.9652 151.329 16.4068C151.329 19.3562 148.559 21.7172 145.173 21.7172C143.494 21.7172 141.782 21.1337 140.662 20.18C139.889 19.518 139.392 19.0277 138.968 18.4736L138.803 18.2628L142.317 15.6443C142.768 16.1249 143.209 16.4804 143.631 16.7206C144.19 17.032 144.658 17.184 145.175 17.184C146.019 17.184 146.72 16.9266 146.72 16.4632C146.72 16.3235 146.659 16.2229 146.494 16.0905C146.281 15.9091 145.874 15.7179 145.085 15.4286C145.023 15.4114 144.538 15.2472 144.452 15.2177C142.623 14.6342 141.667 14.215 140.853 13.4991C139.703 12.5135 139.036 11.17 139.036 9.72837C139.036 6.77896 141.807 4.41797 145.193 4.41797C146.87 4.41797 148.583 5.00148 149.701 5.95519C150.474 6.61715 150.971 7.10749 151.398 7.66158L151.562 7.87242L148.049 10.4908C147.581 10.0103 147.142 9.65727 146.735 9.417C146.176 9.10318 145.707 8.95363 145.19 8.95363C144.347 8.95363 143.646 9.19389 143.646 9.67443C143.646 9.81172 143.707 9.89753 143.859 10.0471C144.072 10.2261 144.479 10.4197 145.269 10.709L145.39 10.7482L145.39 10.7483C145.56 10.8028 145.836 10.8913 145.913 10.918L145.913 10.9174ZM171.379 4.7832H176.577V21.2905H171.379V4.7832ZM169.175 7.84789L165.049 10.9297C164.399 10.0765 163.372 9.52241 162.185 9.52241C160.224 9.52241 158.611 11.1087 158.611 13.0529C158.611 14.9971 160.217 16.5858 162.185 16.5858C163.352 16.5858 164.38 16.0317 165.049 15.1785L169.182 18.2603C167.579 20.3565 165.049 21.6951 162.193 21.6951C157.36 21.6951 153.44 17.8214 153.44 13.0455C153.44 8.26959 157.36 4.40079 162.185 4.40079C165.029 4.38363 167.577 5.74678 169.175 7.83564V7.84299V7.84789ZM183.265 13.0578C183.265 15.002 184.856 16.5858 186.835 16.5858C188.801 16.5858 190.404 15.002 190.404 13.0578C190.404 11.1136 188.801 9.52981 186.835 9.52981C184.869 9.52981 183.265 11.1136 183.265 13.0578ZM178.097 13.0652C178.097 8.2966 182.015 4.4131 186.835 4.4131V4.41064C191.655 4.41064 195.573 8.27454 195.573 13.0456C195.573 17.8166 191.655 21.6976 186.835 21.6976C182.015 21.6976 178.097 17.8337 178.097 13.0652Z" fill="#973D9F"/>
</svg>
